Coordinates
version=1
nRows=27
nColumns=12
inDegrees=yes

Units are S.I. units (second, meters, Newtons, ...)
Angles are in degrees

endheader
time	SC_y	SC_z	SC_x	AC_y	AC_z	AC_x	GH_y	GH_z	GH_yy	EL_x	PS_y
       0.0              -49.75          37.58          8.405          39.18          2.036         -16.06         -132.1           21.0          139.4          31.13          72.91
   0.04097              -49.75          37.58          8.409          39.18          2.037         -16.06         -132.1          21.01          139.4          31.13           72.9
   0.08193              -49.74          37.58          8.413          39.18          2.038         -16.06         -132.1          21.02          139.4          31.13          72.89
    0.1229              -49.74          37.58          8.418          39.18          2.039         -16.05         -132.1          21.03          139.3          31.14          72.89
    0.1639              -49.73          37.58          8.423          39.19           2.04         -16.05         -132.0          21.04          139.3          31.14          72.88
    0.2048              -49.73          37.57          8.428          39.19          2.041         -16.05         -132.0          21.05          139.3          31.15          72.87
    0.2458              -49.72          37.57          8.433          39.19          2.042         -16.05         -132.0          21.06          139.2          31.15          72.87
    0.2868              -49.71          37.57          8.439           39.2          2.044         -16.04         -132.0          21.07          139.2          31.15          72.86
    0.3277               -49.7          37.57          8.446           39.2          2.045         -16.04         -132.0          21.08          139.2          31.16          72.85
    0.3687               -49.7          37.57          8.453          39.21          2.047         -16.04         -132.0          21.09          139.2          31.16          72.84
    0.4097              -49.69          37.57           8.46          39.21          2.049         -16.04         -131.9          21.11          139.1          31.17          72.83
    0.4506              -49.68          37.57          8.468          39.21          2.051         -16.03         -131.9          21.12          139.1          31.18          72.82
    0.4916              -49.67          37.57          8.477          39.22          2.053         -16.03         -131.9          21.14          139.0          31.18          72.81
    0.5326              -49.66          37.57          8.486          39.23          2.055         -16.02         -131.9          21.15          139.0          31.19          72.79
    0.5735              -49.64          37.57          8.496          39.23          2.057         -16.02         -131.8          21.17          138.9           31.2          72.78
    0.6145              -49.63          37.56          8.507          39.24           2.06         -16.02         -131.8          21.19          138.9          31.21          72.77
    0.6554              -49.62          37.56          8.519          39.25          2.062         -16.01         -131.8          21.21          138.8          31.22          72.75
    0.6964               -49.6          37.56          8.532          39.25          2.065         -16.01         -131.8          21.24          138.8          31.23          72.73
    0.7374              -49.59          37.56          8.546          39.26          2.069          -16.0         -131.7          21.26          138.7          31.24          72.71
    0.7783              -49.57          37.56          8.561          39.27          2.072         -15.99         -131.7          21.29          138.6          31.25          72.69
    0.8193              -49.55          37.56          8.578          39.28          2.076         -15.99         -131.6          21.32          138.5          31.26          72.67
    0.8603              -49.52          37.55          8.596          39.29          2.081         -15.98         -131.6          21.36          138.4          31.28          72.64
    0.9012               -49.5          37.55          8.617          39.31          2.085         -15.97         -131.5           21.4          138.3          31.29          72.61
    0.9422              -49.47          37.55           8.64          39.32          2.091         -15.96         -131.5          21.44          138.2          31.31          72.58
    0.9832              -49.44          37.54          8.665          39.34          2.097         -15.95         -131.4          21.49          138.1          31.33          72.55
     1.024              -49.41          37.54          8.693          39.36          2.103         -15.94         -131.3          21.54          137.9          31.35          72.51
     1.065              -49.37          37.54          8.725          39.37          2.111         -15.93         -131.2           21.6          137.8          31.38          72.47
